<svg xmlns="http://www.w3.org/2000/svg" xmlns:xlink="http://www.w3.org/1999/xlink" id="Capa_1" x="0px" y="0px" viewBox="0 0 670.51 195.37" style="enable-background:new 0 0 670.51 195.37;" xml:space="preserve"><style type="text/css">	.st0{fill:url(#SVGID_1_);}	.st1{fill:url(#SVGID_2_);}	.st2{fill:url(#SVGID_3_);}	.st3{fill:url(#SVGID_4_);}	.st4{fill:url(#SVGID_5_);}	.st5{fill:url(#SVGID_6_);}	.st6{fill:url(#SVGID_7_);}	.st7{fill:url(#SVGID_8_);}	.st8{fill:url(#SVGID_9_);}	.st9{fill:#A2C039;}	.st10{fill:#5B9CD6;}	.st11{fill:#E7B143;}	.st12{fill:#C2151E;}	.st13{fill:#592A7E;}	.st14{fill:#CB5026;}	.st15{fill:#FFFFFF;}	.st16{enable-background:new    ;}</style><g>	<g>		<g>							<linearGradient id="SVGID_1_" gradientUnits="userSpaceOnUse" x1="255.6643" y1="87.2084" x2="174.9408" y2="78.2862" gradientTransform="matrix(1 0 0 -1 0 198)">				<stop offset="0" style="stop-color:#C2151E"/>				<stop offset="1" style="stop-color:#592A7E"/>			</linearGradient>			<path class="st0" d="M255.4,108.65l-81.81,9.11c-1.18,0.14-2.01,1.18-1.88,2.34c0.12,1.08,1.04,1.89,2.11,1.89     c0.07,0,0.16,0,0.24-0.01l81.81-9.11c1.17-0.14,2.01-1.18,1.87-2.34c-0.12-1.08-1.04-1.89-2.1-1.89     C255.56,108.64,255.49,108.64,255.4,108.65"/>							<linearGradient id="SVGID_2_" gradientUnits="userSpaceOnUse" x1="9.3646" y1="180.0034" x2="18.4992" y2="105.8653" gradientTransform="matrix(1 0 0 -1 0 198)">				<stop offset="2.291090e-03" style="stop-color:#E7B143"/>				<stop offset="1" style="stop-color:#A2C039"/>			</linearGradient>			<path class="st1" d="M9.26,14.75c-1.08,0.13-1.88,1.04-1.88,2.11c0,0.08,0,0.16,0.01,0.23l8.23,71.27     c0.13,1.18,1.18,2.02,2.34,1.88c1.17-0.14,2.01-1.18,1.88-2.34l-8.23-71.28c-0.13-1.08-1.04-1.88-2.1-1.88     C9.43,14.74,9.35,14.75,9.26,14.75"/>							<linearGradient id="SVGID_3_" gradientUnits="userSpaceOnUse" x1="26.6847" y1="157.4947" x2="18.8248" y2="110.76" gradientTransform="matrix(1 0 0 -1 0 198)">				<stop offset="2.291090e-03" style="stop-color:#E7B143"/>				<stop offset="1" style="stop-color:#A2C039"/>			</linearGradient>			<path class="st2" d="M24.73,39.95c-0.01,0.07-0.03,0.16-0.04,0.23l-8.26,47.98c-0.17,1.17,0.63,2.24,1.79,2.42     c1.17,0.17,2.25-0.63,2.41-1.8l8.26-47.98c0.17-1.16-0.63-2.24-1.79-2.41c-0.11-0.01-0.21-0.02-0.32-0.02     C25.82,38.37,24.97,39.02,24.73,39.95"/>							<linearGradient id="SVGID_4_" gradientUnits="userSpaceOnUse" x1="7.0147" y1="166.7616" x2="152.4685" y2="166.7616" gradientTransform="matrix(1 0 0 -1 0 198)">				<stop offset="2.291090e-03" style="stop-color:#E7B143"/>				<stop offset="1" style="stop-color:#CB5026"/>			</linearGradient>			<path class="st3" d="M7.07,14.08c-0.27,1.15,0.44,2.29,1.58,2.56l141.2,33.33c0.17,0.04,0.33,0.05,0.49,0.05     c0.96,0,1.84-0.65,2.07-1.63c0.27-1.15-0.44-2.28-1.58-2.56L9.63,12.51c-0.16-0.04-0.33-0.05-0.48-0.05     C8.18,12.45,7.3,13.11,7.07,14.08"/>							<linearGradient id="SVGID_5_" gradientUnits="userSpaceOnUse" x1="88.1173" y1="57.7298" x2="186.2029" y2="57.7298" gradientTransform="matrix(1 0 0 -1 0 198)">				<stop offset="2.291090e-03" style="stop-color:#5B9CD6"/>				<stop offset="1" style="stop-color:#592A7E"/>			</linearGradient>			<path class="st4" d="M88.18,128.74c-0.27,1.14,0.44,2.28,1.58,2.55l93.84,22.09c0.17,0.03,0.33,0.05,0.49,0.05     c0.78,0,1.5-0.44,1.86-1.12c0.08-0.16,0.16-0.33,0.2-0.51c0.21-0.89-0.18-1.78-0.9-2.26c-0.2-0.14-0.42-0.24-0.67-0.3     l-93.85-22.08c-0.17-0.04-0.33-0.05-0.49-0.05C89.27,127.11,88.41,127.76,88.18,128.74"/>							<linearGradient id="SVGID_6_" gradientUnits="userSpaceOnUse" x1="181.9599" y1="66.3008" x2="257.7618" y2="66.3008" gradientTransform="matrix(1 0 0 -1 0 198)">				<stop offset="0" style="stop-color:#592A7E"/>				<stop offset="1" style="stop-color:#C2151E"/>			</linearGradient>			<path class="st5" d="M254.58,109.57l-71.55,40.56c-1.02,0.58-1.38,1.88-0.8,2.89c0.39,0.69,1.1,1.08,1.85,1.08     c0.36,0,0.71-0.09,1.04-0.27l71.56-40.56c1.02-0.58,1.38-1.87,0.8-2.89c-0.39-0.68-1.11-1.08-1.85-1.08     C255.28,109.29,254.92,109.38,254.58,109.57"/>							<linearGradient id="SVGID_7_" gradientUnits="userSpaceOnUse" x1="151.4487" y1="145.7716" x2="185.65" y2="42.9554" gradientTransform="matrix(1 0 0 -1 0 198)">				<stop offset="0" style="stop-color:#CB5026"/>				<stop offset="0.6062" style="stop-color:#592A7E"/>			</linearGradient>			<path class="st6" d="M149.67,45.89c-1.11,0.37-1.72,1.57-1.36,2.68l33.76,103.39c0.29,0.89,1.12,1.46,2.02,1.46     c0.22,0,0.44-0.03,0.66-0.11c1.11-0.37,1.72-1.57,1.36-2.68l-33.76-103.4c-0.29-0.89-1.12-1.46-2.02-1.46     C150.11,45.79,149.89,45.82,149.67,45.89"/>							<linearGradient id="SVGID_8_" gradientUnits="userSpaceOnUse" x1="88.1199" y1="109.4265" x2="152.4554" y2="109.4265" gradientTransform="matrix(1 0 0 -1 0 198)">				<stop offset="2.291090e-03" style="stop-color:#5B9CD6"/>				<stop offset="1" style="stop-color:#CB5026"/>			</linearGradient>			<path class="st7" d="M148.62,46.64l-60.08,81.32c-0.69,0.95-0.49,2.28,0.45,2.97c0.38,0.28,0.82,0.42,1.26,0.42     c0.64,0,1.28-0.29,1.7-0.86l60.09-81.32c0.69-0.95,0.49-2.27-0.45-2.97c-0.38-0.28-0.82-0.41-1.26-0.41     C149.68,45.79,149.04,46.08,148.62,46.64"/>							<linearGradient id="SVGID_9_" gradientUnits="userSpaceOnUse" x1="8.7756" y1="183.7436" x2="90.3488" y2="68.8188" gradientTransform="matrix(1 0 0 -1 0 198)">				<stop offset="0.2993" style="stop-color:#E7B143"/>				<stop offset="0.9989" style="stop-color:#5B9CD6"/>			</linearGradient>			<path class="st8" d="M7.9,12.84c-0.96,0.67-1.19,2-0.5,2.96l81.11,114.66c0.41,0.59,1.07,0.89,1.73,0.89     c0.42,0,0.85-0.13,1.23-0.39c0.96-0.67,1.18-2,0.5-2.95L10.88,13.35c-0.42-0.59-1.07-0.89-1.73-0.89     C8.71,12.45,8.28,12.58,7.9,12.84"/>			<path class="st9" d="M27.32,90.59c0,5.16-4.18,9.34-9.34,9.34s-9.34-4.18-9.34-9.34s4.18-9.34,9.34-9.34S27.32,85.43,27.32,90.59     "/>			<path class="st10" d="M99.52,129.24c0,5.16-4.18,9.34-9.34,9.34s-9.34-4.18-9.34-9.34c0-5.16,4.18-9.34,9.34-9.34     S99.52,124.07,99.52,129.24"/>			<path class="st11" d="M18.69,14.79c0,5.16-4.18,9.34-9.34,9.34S0,19.95,0,14.79s4.18-9.34,9.34-9.34S18.69,9.63,18.69,14.79"/>			<path class="st12" d="M264.98,110.76c0,5.16-4.18,9.34-9.34,9.34s-9.34-4.18-9.34-9.34s4.18-9.34,9.34-9.34     C260.81,101.42,264.98,105.6,264.98,110.76"/>			<path class="st13" d="M193.64,151.53c0,5.16-4.18,9.34-9.34,9.34s-9.34-4.18-9.34-9.34s4.18-9.34,9.34-9.34     C189.47,142.18,193.64,146.37,193.64,151.53"/>			<path class="st14" d="M159.7,47.94c0,5.16-4.18,9.34-9.34,9.34s-9.34-4.18-9.34-9.34c0-5.16,4.18-9.34,9.34-9.34     C155.53,38.6,159.7,42.78,159.7,47.94"/>		</g>		<g>			<path class="st15" d="M305.36,114.99c-0.56-1.64-0.94-2.64-0.94-7.83V97.15c0-5.92-2.06-8.1-6.74-8.1h-3.55v25.95h-10.29V51.88     h15.9c10.47,0,14.98,4.79,14.98,14.57v4.97c0,6.51-2.11,10.67-6.62,12.75v-0.01c5.54,2.08,7.35,6.78,7.35,13.38v9.77     c0,3.07,0.09,5.34,1.21,7.68H305.36z M294.13,60.29v19.63h4.06c3.87,0,6.22-1.64,6.22-6.76v-6.31c0-4.56-1.6-6.58-5.29-6.58     h-4.99V60.29z"/>			<polygon class="st15" points="334.87,78.53 349.56,78.53 349.56,87.64 334.87,87.64 334.87,105.87 353.24,105.87 353.24,114.99      324.58,114.99 324.58,51.88 353.24,51.88 353.24,61 334.87,61    "/>			<path class="st15" d="M361.64,51.87h16.65c10.52,0,15.69,5.5,15.69,15.6v31.92c0,10.1-5.17,15.6-15.69,15.6h-16.65V51.87z      M372.66,61v44.88h5.79c3.28,0,5.23-1.62,5.23-6.11V67.1c0-4.49-1.97-6.11-5.23-6.11H372.66z"/>			<polygon class="st15" points="412.85,69.41 412.66,69.41 412.66,114.99 403.11,114.99 403.11,51.88 415.61,51.88 426.43,89.75      426.63,89.75 426.63,51.88 436.18,51.88 436.18,114.99 425.55,114.99    "/>			<path class="st15" d="M479.83,114.99h-10.65l-1.76-11.22h-12.51l-1.76,11.22h-9.7l10.58-63.11h15.21L479.83,114.99z      M456.05,94.66h10.12L461.2,62.4h-0.19L456.05,94.66z"/>			<path class="st15" d="M516.91,91.15v8.34c0,10.06-5.28,15.81-15.44,15.81c-10.16,0-15.43-5.75-15.43-15.81V66.81     c0-10.06,5.28-15.81,15.43-15.81c10.16,0,15.44,5.75,15.44,15.81v6.11h-9.55v-6.74c0-4.5-2.13-6.2-5.52-6.2s-5.51,1.7-5.51,6.2     v33.95c0,4.49,2.12,6.11,5.51,6.11s5.52-1.62,5.52-6.11v-8.98C507.36,91.15,516.91,91.15,516.91,91.15z"/>			<polygon class="st15" points="536.34,78.53 551.04,78.53 551.04,87.64 536.34,87.64 536.34,105.87 554.72,105.87 554.72,114.99      526.05,114.99 526.05,51.88 554.72,51.88 554.72,61 536.34,61    "/>			<path class="st15" d="M593.98,91.15v8.34c0,10.06-5.28,15.81-15.44,15.81c-10.16,0-15.44-5.75-15.44-15.81V66.81     c0-10.06,5.28-15.81,15.44-15.81c10.16,0,15.44,5.75,15.44,15.81v6.11h-9.55v-6.74c0-4.5-2.13-6.2-5.52-6.2     c-3.38,0-5.51,1.7-5.51,6.2v33.95c0,4.49,2.12,6.11,5.51,6.11c3.38,0,5.52-1.62,5.52-6.11v-8.98     C584.43,91.15,593.98,91.15,593.98,91.15z"/>			<polygon class="st15" points="611.2,94.07 598.2,51.88 609.2,51.88 617.04,80.63 617.23,80.63 625.07,51.88 634.49,51.88      621.49,94.07 621.49,114.99 611.2,114.99    "/>			<polygon class="st15" points="638.7,51.88 671.05,51.88 671.05,61 660.01,61 660.01,114.99 649.73,114.99 649.73,61 638.7,61         "/>		</g>	</g>	<g class="st16">		<path class="st15" d="M283.96,152.24v-19.99h4.52c1.25,0,2.23,0.2,2.95,0.61c0.72,0.4,1.23,0.99,1.54,1.75    c0.31,0.76,0.47,1.67,0.47,2.73c0,0.74-0.08,1.44-0.25,2.1s-0.44,1.22-0.84,1.68c-0.4,0.46-0.95,0.77-1.68,0.91l3.06,10.22h-1.83    l-2.94-9.82h-3.13v9.82H283.96z M285.84,141.03h2.54c0.84,0,1.49-0.14,1.95-0.42c0.46-0.28,0.79-0.69,0.99-1.23s0.3-1.23,0.3-2.05    c0-1.23-0.21-2.16-0.64-2.76c-0.43-0.61-1.27-0.91-2.54-0.91h-2.59V141.03z"/>		<path class="st15" d="M300.82,152.46c-0.89,0-1.62-0.18-2.18-0.53c-0.57-0.35-0.99-0.94-1.26-1.76c-0.27-0.82-0.41-1.92-0.41-3.28    v-3.6c0-1.42,0.14-2.52,0.42-3.32c0.28-0.8,0.71-1.37,1.28-1.7c0.58-0.34,1.3-0.51,2.17-0.51c1,0,1.77,0.21,2.3,0.64    c0.53,0.43,0.89,1.07,1.1,1.94c0.21,0.86,0.31,1.97,0.31,3.32v1.28h-5.78v2.49c0,0.92,0.07,1.65,0.21,2.18    c0.14,0.54,0.36,0.92,0.67,1.15c0.3,0.23,0.69,0.34,1.17,0.34c0.36,0,0.69-0.07,0.99-0.21c0.3-0.14,0.53-0.41,0.7-0.81    s0.26-0.98,0.26-1.72v-0.99h1.75v0.79c0,1.3-0.27,2.34-0.8,3.12S302.22,152.46,300.82,152.46z M298.77,143.9h4v-1.18    c0-0.76-0.04-1.4-0.12-1.94c-0.08-0.53-0.26-0.95-0.53-1.23c-0.27-0.29-0.7-0.43-1.3-0.43c-0.49,0-0.89,0.11-1.2,0.32    c-0.3,0.21-0.52,0.6-0.65,1.15c-0.13,0.55-0.2,1.34-0.2,2.36V143.9z"/>		<path class="st15" d="M311.18,152.46c-1.22,0-2.09-0.46-2.63-1.38c-0.53-0.92-0.8-2.45-0.8-4.59v-2.64c0-1.25,0.09-2.33,0.27-3.23    c0.18-0.91,0.51-1.61,1-2.11c0.48-0.5,1.18-0.75,2.09-0.75c0.56,0,1.05,0.13,1.47,0.38s0.77,0.54,1.05,0.85v-6.74h1.8v19.99h-1.8    v-1.01c-0.28,0.31-0.62,0.6-1.02,0.85C312.2,152.33,311.73,152.46,311.18,152.46z M311.55,151.03c0.4,0,0.77-0.09,1.12-0.27    c0.35-0.18,0.67-0.4,0.95-0.67v-9.92c-0.25-0.23-0.55-0.46-0.91-0.68c-0.36-0.22-0.77-0.33-1.21-0.33c-0.79,0-1.31,0.35-1.57,1.05    c-0.26,0.7-0.38,1.71-0.38,3.05v3.38c0,0.96,0.05,1.76,0.16,2.42c0.11,0.66,0.3,1.15,0.59,1.48    C310.6,150.86,311.01,151.03,311.55,151.03z"/>		<path class="st15" d="M325.7,152.24v-19.99h1.36l6.37,15.52v-15.52h1.63v19.99h-1.33l-6.39-15.7v15.7H325.7z"/>		<path class="st15" d="M341.66,152.46c-0.58,0-1.08-0.14-1.5-0.43c-0.43-0.29-0.76-0.67-1-1.16c-0.24-0.48-0.36-1.02-0.36-1.59    c0-0.72,0.1-1.34,0.31-1.85c0.21-0.51,0.53-0.97,0.99-1.37c0.45-0.4,1.04-0.8,1.78-1.18c0.73-0.39,1.62-0.82,2.68-1.3v-1.01    c0-0.87-0.05-1.56-0.16-2.06c-0.11-0.5-0.29-0.86-0.54-1.07s-0.61-0.32-1.07-0.32c-0.38,0-0.72,0.07-1.01,0.22    c-0.3,0.15-0.54,0.4-0.72,0.75c-0.18,0.35-0.27,0.84-0.27,1.47v0.49l-1.78-0.03c0.02-1.45,0.33-2.52,0.93-3.22    c0.6-0.7,1.58-1.05,2.95-1.05c1.28,0,2.18,0.38,2.7,1.15c0.52,0.77,0.78,1.95,0.78,3.57v6.94c0,0.25,0.01,0.56,0.02,0.95    c0.02,0.39,0.03,0.75,0.05,1.1s0.03,0.61,0.05,0.79h-1.6c-0.03-0.31-0.08-0.66-0.15-1.05s-0.11-0.7-0.12-0.93    c-0.2,0.58-0.55,1.09-1.05,1.53S342.42,152.46,341.66,152.46z M342.23,150.93c0.36,0,0.69-0.09,0.99-0.27    c0.3-0.18,0.56-0.4,0.79-0.65s0.41-0.51,0.54-0.78v-4.44c-0.71,0.36-1.31,0.69-1.81,0.99c-0.5,0.3-0.91,0.58-1.22,0.86    c-0.31,0.28-0.54,0.6-0.69,0.95c-0.15,0.35-0.22,0.77-0.22,1.25c0,0.76,0.16,1.3,0.49,1.62    C341.42,150.77,341.8,150.93,342.23,150.93z"/>		<path class="st15" d="M353.58,152.46c-1.12,0-1.95-0.25-2.49-0.74c-0.54-0.49-0.9-1.16-1.07-2.01s-0.26-1.81-0.26-2.88v-3.33    c0-1.32,0.11-2.4,0.32-3.25c0.21-0.85,0.6-1.48,1.15-1.89c0.55-0.41,1.34-0.62,2.36-0.62c1,0,1.77,0.19,2.3,0.57    c0.53,0.38,0.88,0.91,1.06,1.6c0.18,0.69,0.27,1.49,0.27,2.39v0.69h-1.68v-0.69c0-0.84-0.06-1.49-0.19-1.95    c-0.12-0.46-0.33-0.79-0.62-0.97c-0.29-0.19-0.67-0.28-1.15-0.28c-0.56,0-0.99,0.13-1.28,0.39c-0.3,0.26-0.49,0.7-0.59,1.3    s-0.15,1.4-0.15,2.41v4c0,1.43,0.14,2.44,0.42,3.02c0.28,0.58,0.82,0.88,1.63,0.88c0.56,0,0.98-0.13,1.26-0.38    c0.28-0.25,0.46-0.64,0.54-1.15c0.08-0.51,0.12-1.14,0.12-1.9v-0.79h1.68v0.69c0,0.95-0.09,1.8-0.26,2.53s-0.52,1.31-1.05,1.73    S354.6,152.46,353.58,152.46z"/>		<path class="st15" d="M360.86,136v-2.44h1.8V136H360.86z M360.86,152.24v-14.26h1.8v14.26H360.86z"/>		<path class="st15" d="M370.27,152.46c-0.97,0-1.73-0.21-2.28-0.63c-0.55-0.42-0.94-1.03-1.17-1.83s-0.35-1.77-0.35-2.92v-3.95    c0-1.15,0.12-2.13,0.35-2.92s0.62-1.41,1.17-1.83c0.55-0.42,1.31-0.63,2.28-0.63c1,0,1.78,0.21,2.32,0.63    c0.54,0.42,0.93,1.03,1.16,1.83c0.23,0.8,0.34,1.77,0.34,2.92v3.95c0,1.15-0.12,2.13-0.34,2.92c-0.23,0.8-0.62,1.41-1.16,1.83    S371.27,152.46,370.27,152.46z M370.27,151.1c0.62,0,1.08-0.16,1.37-0.49c0.29-0.33,0.46-0.79,0.53-1.39s0.1-1.28,0.1-2.04v-4.15    c0-0.77-0.03-1.45-0.1-2.04c-0.07-0.58-0.24-1.04-0.53-1.38c-0.29-0.34-0.75-0.51-1.37-0.51s-1.08,0.17-1.36,0.51    c-0.28,0.34-0.45,0.8-0.52,1.38c-0.07,0.58-0.1,1.26-0.1,2.04v4.15c0,0.76,0.03,1.44,0.1,2.04c0.07,0.6,0.24,1.07,0.52,1.39    C369.19,150.94,369.64,151.1,370.27,151.1z"/>		<path class="st15" d="M377.62,152.24v-14.26h1.8v1.48c0.46-0.49,0.98-0.9,1.55-1.22c0.58-0.32,1.2-0.48,1.88-0.48    c0.48,0,0.88,0.12,1.21,0.36s0.58,0.58,0.74,1.04c0.17,0.45,0.25,1,0.25,1.64v11.45h-1.8v-11.06c0-0.74-0.11-1.26-0.33-1.57    c-0.22-0.3-0.56-0.46-1.02-0.46c-0.41,0-0.83,0.12-1.26,0.37c-0.43,0.25-0.83,0.57-1.21,0.96v11.75H377.62z"/>		<path class="st15" d="M391.22,152.46c-0.58,0-1.08-0.14-1.5-0.43c-0.43-0.29-0.76-0.67-1-1.16c-0.24-0.48-0.36-1.02-0.36-1.59    c0-0.72,0.1-1.34,0.31-1.85c0.21-0.51,0.53-0.97,0.99-1.37c0.45-0.4,1.04-0.8,1.78-1.18c0.73-0.39,1.62-0.82,2.68-1.3v-1.01    c0-0.87-0.05-1.56-0.16-2.06c-0.11-0.5-0.29-0.86-0.54-1.07s-0.61-0.32-1.07-0.32c-0.38,0-0.72,0.07-1.01,0.22    c-0.3,0.15-0.54,0.4-0.72,0.75c-0.18,0.35-0.27,0.84-0.27,1.47v0.49l-1.78-0.03c0.02-1.45,0.33-2.52,0.93-3.22    c0.6-0.7,1.58-1.05,2.95-1.05c1.28,0,2.18,0.38,2.7,1.15c0.52,0.77,0.78,1.95,0.78,3.57v6.94c0,0.25,0.01,0.56,0.02,0.95    c0.02,0.39,0.03,0.75,0.05,1.1s0.03,0.61,0.05,0.79h-1.6c-0.03-0.31-0.08-0.66-0.15-1.05s-0.11-0.7-0.12-0.93    c-0.2,0.58-0.55,1.09-1.05,1.53S391.98,152.46,391.22,152.46z M391.79,150.93c0.36,0,0.69-0.09,0.99-0.27    c0.3-0.18,0.56-0.4,0.79-0.65s0.41-0.51,0.54-0.78v-4.44c-0.71,0.36-1.31,0.69-1.81,0.99c-0.5,0.3-0.91,0.58-1.22,0.86    c-0.31,0.28-0.54,0.6-0.69,0.95c-0.15,0.35-0.22,0.77-0.22,1.25c0,0.76,0.16,1.3,0.49,1.62    C390.98,150.77,391.36,150.93,391.79,150.93z"/>		<path class="st15" d="M399.83,152.24v-19.99h1.8v19.99H399.83z"/>		<path class="st15" d="M414.84,152.46c-1.22,0-2.09-0.46-2.63-1.38c-0.54-0.92-0.8-2.45-0.8-4.59v-2.64c0-1.25,0.09-2.33,0.27-3.23    s0.51-1.61,1-2.11s1.18-0.75,2.08-0.75c0.56,0,1.05,0.13,1.47,0.38s0.77,0.54,1.05,0.85v-6.74h1.8v19.99h-1.8v-1.01    c-0.28,0.31-0.62,0.6-1.02,0.85S415.38,152.46,414.84,152.46z M415.21,151.03c0.4,0,0.77-0.09,1.12-0.27    c0.35-0.18,0.67-0.4,0.95-0.67v-9.92c-0.25-0.23-0.55-0.46-0.91-0.68c-0.36-0.22-0.76-0.33-1.21-0.33c-0.79,0-1.31,0.35-1.57,1.05    c-0.26,0.7-0.38,1.71-0.38,3.05v3.38c0,0.96,0.05,1.76,0.16,2.42c0.11,0.66,0.3,1.15,0.59,1.48S414.66,151.03,415.21,151.03z"/>		<path class="st15" d="M426.49,152.46c-0.89,0-1.62-0.18-2.18-0.53s-0.99-0.94-1.26-1.76c-0.27-0.82-0.41-1.92-0.41-3.28v-3.6    c0-1.42,0.14-2.52,0.42-3.32c0.28-0.8,0.71-1.37,1.28-1.7c0.58-0.34,1.3-0.51,2.17-0.51c1,0,1.77,0.21,2.29,0.64    c0.53,0.43,0.89,1.07,1.1,1.94c0.21,0.86,0.31,1.97,0.31,3.32v1.28h-5.78v2.49c0,0.92,0.07,1.65,0.21,2.18    c0.14,0.54,0.36,0.92,0.67,1.15s0.7,0.34,1.17,0.34c0.36,0,0.69-0.07,0.99-0.21c0.3-0.14,0.53-0.41,0.7-0.81s0.26-0.98,0.26-1.72    v-0.99h1.75v0.79c0,1.3-0.27,2.34-0.8,3.12C428.85,152.07,427.88,152.46,426.49,152.46z M424.44,143.9h4v-1.18    c0-0.76-0.04-1.4-0.12-1.94c-0.08-0.53-0.26-0.95-0.53-1.23c-0.27-0.29-0.7-0.43-1.3-0.43c-0.49,0-0.89,0.11-1.2,0.32    s-0.52,0.6-0.65,1.15c-0.13,0.55-0.2,1.34-0.2,2.36V143.9z"/>		<path class="st15" d="M444.77,152.48c-1.35,0-2.39-0.28-3.12-0.84c-0.73-0.56-1.24-1.31-1.52-2.26c-0.28-0.95-0.42-2-0.42-3.15    v-7.95c0-1.23,0.14-2.32,0.43-3.26c0.29-0.94,0.8-1.67,1.54-2.2c0.74-0.53,1.77-0.79,3.09-0.79c1.2,0,2.14,0.23,2.83,0.69    s1.17,1.11,1.47,1.96s0.44,1.86,0.44,3.02v1.21h-1.78v-1.16c0-0.87-0.07-1.62-0.21-2.25s-0.42-1.11-0.85-1.46    c-0.43-0.35-1.05-0.52-1.88-0.52c-0.91,0-1.58,0.18-2.04,0.55c-0.45,0.37-0.76,0.89-0.91,1.57c-0.16,0.67-0.23,1.46-0.23,2.34    v8.51c0,0.99,0.09,1.81,0.28,2.47c0.19,0.66,0.51,1.15,0.98,1.48c0.46,0.33,1.1,0.49,1.92,0.49c0.84,0,1.47-0.18,1.89-0.54    c0.42-0.36,0.7-0.87,0.84-1.52s0.21-1.41,0.21-2.28v-1.31h1.78v1.18c0,1.17-0.14,2.2-0.41,3.1c-0.27,0.9-0.75,1.6-1.43,2.11    C446.99,152.23,446.02,152.48,444.77,152.48z"/>		<path class="st15" d="M456.64,152.46c-0.97,0-1.73-0.21-2.28-0.63c-0.55-0.42-0.94-1.03-1.17-1.83s-0.35-1.77-0.35-2.92v-3.95    c0-1.15,0.12-2.13,0.35-2.92s0.62-1.41,1.17-1.83c0.55-0.42,1.31-0.63,2.28-0.63c1,0,1.78,0.21,2.32,0.63    c0.54,0.42,0.93,1.03,1.16,1.83c0.23,0.8,0.34,1.77,0.34,2.92v3.95c0,1.15-0.12,2.13-0.34,2.92c-0.23,0.8-0.62,1.41-1.16,1.83    S457.65,152.46,456.64,152.46z M456.64,151.1c0.62,0,1.08-0.16,1.37-0.49c0.29-0.33,0.46-0.79,0.53-1.39s0.1-1.28,0.1-2.04v-4.15    c0-0.77-0.03-1.45-0.1-2.04c-0.07-0.58-0.24-1.04-0.53-1.38c-0.29-0.34-0.75-0.51-1.37-0.51s-1.08,0.17-1.36,0.51    c-0.28,0.34-0.45,0.8-0.52,1.38c-0.07,0.58-0.1,1.26-0.1,2.04v4.15c0,0.76,0.03,1.44,0.1,2.04c0.07,0.6,0.24,1.07,0.52,1.39    C455.57,150.94,456.02,151.1,456.64,151.1z"/>		<path class="st15" d="M464,152.24v-14.26h1.8v1.48c0.46-0.49,0.98-0.9,1.55-1.22c0.58-0.32,1.2-0.48,1.88-0.48    c0.48,0,0.88,0.12,1.21,0.36s0.58,0.58,0.74,1.04c0.17,0.45,0.25,1,0.25,1.64v11.45h-1.8v-11.06c0-0.74-0.11-1.26-0.33-1.57    c-0.22-0.3-0.56-0.46-1.02-0.46c-0.41,0-0.83,0.12-1.26,0.37c-0.43,0.25-0.83,0.57-1.21,0.96v11.75H464z"/>		<path class="st15" d="M478.39,152.46c-1.13,0-2.04-0.37-2.71-1.1s-1.06-1.72-1.16-2.95l1.51-0.47c0.1,1.1,0.35,1.9,0.76,2.41    s0.99,0.75,1.73,0.75c0.62,0,1.11-0.18,1.44-0.53c0.34-0.35,0.51-0.85,0.51-1.49c0-0.46-0.14-0.93-0.42-1.39    c-0.28-0.47-0.71-0.96-1.31-1.47l-1.95-1.68c-0.64-0.54-1.13-1.09-1.46-1.63s-0.49-1.19-0.49-1.95c0-0.69,0.14-1.27,0.43-1.74    s0.69-0.83,1.2-1.09s1.1-0.38,1.78-0.38c1.09,0,1.91,0.35,2.47,1.05c0.56,0.7,0.86,1.6,0.91,2.7l-1.28,0.42    c-0.03-0.64-0.13-1.17-0.3-1.59c-0.16-0.42-0.39-0.73-0.68-0.93c-0.29-0.2-0.64-0.3-1.05-0.3c-0.54,0-0.98,0.15-1.32,0.46    s-0.51,0.73-0.51,1.27c0,0.43,0.08,0.81,0.25,1.14c0.16,0.33,0.47,0.7,0.91,1.11l2.02,1.8c0.4,0.35,0.77,0.72,1.14,1.11    c0.36,0.39,0.66,0.83,0.89,1.32c0.23,0.49,0.35,1.06,0.35,1.72c0,0.74-0.15,1.36-0.46,1.86s-0.73,0.89-1.27,1.16    S479.13,152.46,478.39,152.46z"/>		<path class="st15" d="M488.7,152.46c-0.89,0-1.62-0.18-2.18-0.53s-0.99-0.94-1.26-1.76c-0.27-0.82-0.41-1.92-0.41-3.28v-3.6    c0-1.42,0.14-2.52,0.42-3.32c0.28-0.8,0.71-1.37,1.28-1.7c0.58-0.34,1.3-0.51,2.17-0.51c1,0,1.77,0.21,2.29,0.64    c0.53,0.43,0.89,1.07,1.1,1.94c0.21,0.86,0.31,1.97,0.31,3.32v1.28h-5.78v2.49c0,0.92,0.07,1.65,0.21,2.18    c0.14,0.54,0.36,0.92,0.67,1.15s0.7,0.34,1.17,0.34c0.36,0,0.69-0.07,0.99-0.21c0.3-0.14,0.53-0.41,0.7-0.81s0.26-0.98,0.26-1.72    v-0.99h1.75v0.79c0,1.3-0.27,2.34-0.8,3.12C491.07,152.07,490.1,152.46,488.7,152.46z M486.65,143.9h4v-1.18    c0-0.76-0.04-1.4-0.12-1.94c-0.08-0.53-0.26-0.95-0.53-1.23c-0.27-0.29-0.7-0.43-1.3-0.43c-0.49,0-0.89,0.11-1.2,0.32    s-0.52,0.6-0.65,1.15c-0.13,0.55-0.2,1.34-0.2,2.36V143.9z"/>		<path class="st15" d="M494.9,155.99c-0.12,0-0.28-0.01-0.49-0.02c-0.21-0.02-0.37-0.04-0.47-0.07v-1.38    c0.05,0.02,0.15,0.03,0.31,0.04c0.16,0.01,0.26,0.01,0.31,0.01c0.51,0,0.88-0.1,1.12-0.28c0.24-0.19,0.39-0.44,0.47-0.74    c0.07-0.3,0.11-0.62,0.11-0.95v-14.61h1.8v14.76c0,1.14-0.28,1.96-0.84,2.48C496.66,155.73,495.89,155.99,494.9,155.99z     M496.26,136v-2.44h1.8V136H496.26z"/>		<path class="st15" d="M505.56,152.46c-0.97,0-1.73-0.21-2.28-0.63c-0.55-0.42-0.94-1.03-1.17-1.83s-0.35-1.77-0.35-2.92v-3.95    c0-1.15,0.12-2.13,0.35-2.92s0.62-1.41,1.17-1.83c0.55-0.42,1.31-0.63,2.28-0.63c1,0,1.78,0.21,2.32,0.63    c0.54,0.42,0.93,1.03,1.16,1.83c0.23,0.8,0.34,1.77,0.34,2.92v3.95c0,1.15-0.12,2.13-0.34,2.92c-0.23,0.8-0.62,1.41-1.16,1.83    S506.56,152.46,505.56,152.46z M505.56,151.1c0.62,0,1.08-0.16,1.37-0.49c0.29-0.33,0.46-0.79,0.53-1.39s0.1-1.28,0.1-2.04v-4.15    c0-0.77-0.03-1.45-0.1-2.04c-0.07-0.58-0.24-1.04-0.53-1.38c-0.29-0.34-0.75-0.51-1.37-0.51s-1.08,0.17-1.36,0.51    c-0.28,0.34-0.45,0.8-0.52,1.38c-0.07,0.58-0.1,1.26-0.1,2.04v4.15c0,0.76,0.03,1.44,0.1,2.04c0.07,0.6,0.24,1.07,0.52,1.39    C504.48,150.94,504.93,151.1,505.56,151.1z"/>		<path class="st15" d="M516.17,152.46c-1.13,0-2.04-0.37-2.71-1.1s-1.06-1.72-1.16-2.95l1.51-0.47c0.1,1.1,0.35,1.9,0.76,2.41    s0.99,0.75,1.73,0.75c0.62,0,1.11-0.18,1.44-0.53c0.34-0.35,0.51-0.85,0.51-1.49c0-0.46-0.14-0.93-0.42-1.39    c-0.28-0.47-0.71-0.96-1.31-1.47l-1.95-1.68c-0.64-0.54-1.13-1.09-1.46-1.63s-0.49-1.19-0.49-1.95c0-0.69,0.14-1.27,0.43-1.74    s0.69-0.83,1.2-1.09s1.1-0.38,1.78-0.38c1.09,0,1.91,0.35,2.47,1.05c0.56,0.7,0.86,1.6,0.91,2.7l-1.28,0.42    c-0.03-0.64-0.13-1.17-0.3-1.59c-0.16-0.42-0.39-0.73-0.68-0.93c-0.29-0.2-0.64-0.3-1.05-0.3c-0.54,0-0.98,0.15-1.32,0.46    s-0.51,0.73-0.51,1.27c0,0.43,0.08,0.81,0.25,1.14c0.16,0.33,0.47,0.7,0.91,1.11l2.02,1.8c0.4,0.35,0.77,0.72,1.14,1.11    c0.36,0.39,0.66,0.83,0.89,1.32c0.23,0.49,0.35,1.06,0.35,1.72c0,0.74-0.15,1.36-0.46,1.86s-0.73,0.89-1.27,1.16    S516.91,152.46,516.17,152.46z"/>		<path class="st15" d="M528.59,155.79v-1.41c0.82,0,1.44-0.06,1.86-0.19c0.42-0.12,0.7-0.3,0.84-0.52    c0.14-0.22,0.21-0.48,0.21-0.78c0-0.26-0.05-0.61-0.15-1.04s-0.21-0.87-0.32-1.33l-2.94-12.56h1.8l2.47,12.14l2.39-12.14h1.83    l-3.46,15.28c-0.13,0.61-0.37,1.1-0.7,1.47c-0.34,0.37-0.78,0.64-1.33,0.81c-0.55,0.17-1.23,0.26-2.04,0.26H528.59z"/>		<path class="st15" d="M550.6,152.48c-1.33,0-2.37-0.26-3.12-0.78c-0.75-0.52-1.28-1.24-1.58-2.17s-0.46-2-0.46-3.2v-8.29    c0-1.22,0.16-2.27,0.48-3.17c0.32-0.9,0.85-1.59,1.6-2.09c0.75-0.49,1.77-0.74,3.07-0.74c1.28,0,2.3,0.25,3.05,0.74    c0.75,0.49,1.28,1.19,1.59,2.09s0.47,1.95,0.47,3.17v8.32c0,1.2-0.15,2.26-0.46,3.17c-0.3,0.91-0.83,1.63-1.57,2.16    C552.94,152.22,551.92,152.48,550.6,152.48z M550.6,150.98c0.87,0,1.54-0.18,2-0.53c0.46-0.35,0.78-0.85,0.95-1.48    c0.17-0.63,0.26-1.37,0.26-2.21v-9.06c0-0.84-0.09-1.57-0.26-2.2c-0.17-0.62-0.49-1.11-0.95-1.44c-0.46-0.34-1.13-0.51-2-0.51    c-0.89,0-1.57,0.17-2.04,0.51c-0.47,0.34-0.79,0.82-0.96,1.44c-0.17,0.63-0.26,1.36-0.26,2.2v9.06c0,0.84,0.09,1.58,0.26,2.21    c0.17,0.63,0.49,1.13,0.96,1.48C549.03,150.8,549.71,150.98,550.6,150.98z"/>		<path class="st15" d="M559.61,152.24v-14.26h1.83v1.95c0.46-0.76,0.99-1.3,1.58-1.62c0.59-0.32,1.16-0.48,1.7-0.48    c0.05,0,0.1,0,0.15,0c0.05,0,0.11,0.01,0.17,0.02v1.92c-0.12-0.05-0.26-0.09-0.42-0.11c-0.17-0.03-0.32-0.04-0.47-0.04    c-0.56,0-1.07,0.13-1.52,0.39c-0.45,0.26-0.85,0.68-1.2,1.26v10.96H559.61z"/>		<path class="st15" d="M571.43,156.93c-0.94,0-1.75-0.09-2.44-0.27c-0.69-0.18-1.22-0.46-1.59-0.85s-0.55-0.88-0.55-1.47    c0-0.48,0.11-0.91,0.34-1.31c0.23-0.4,0.53-0.75,0.89-1.05c0.36-0.3,0.73-0.56,1.11-0.75c-0.54-0.15-0.94-0.35-1.2-0.62    c-0.26-0.26-0.38-0.58-0.38-0.94c0-0.49,0.15-0.94,0.46-1.33c0.3-0.39,0.72-0.81,1.25-1.26c-0.66-0.46-1.12-1.05-1.39-1.78    c-0.27-0.72-0.41-1.58-0.41-2.57c0-0.92,0.14-1.76,0.43-2.5c0.29-0.75,0.72-1.35,1.31-1.8c0.58-0.45,1.34-0.68,2.26-0.68    c0.84,0,1.5,0.17,1.97,0.52c0.48,0.35,0.84,0.76,1.09,1.26c0.15-0.23,0.4-0.51,0.76-0.85c0.36-0.34,0.75-0.59,1.16-0.75l0.37-0.12    l0.49,1.26c-0.26,0.05-0.55,0.14-0.86,0.28c-0.31,0.14-0.6,0.29-0.88,0.46s-0.47,0.33-0.6,0.49c0.11,0.3,0.22,0.7,0.31,1.21    c0.09,0.51,0.14,0.94,0.14,1.28c0,0.94-0.13,1.79-0.38,2.54s-0.67,1.35-1.23,1.79c-0.57,0.44-1.34,0.65-2.31,0.65    c-0.25,0-0.51-0.03-0.78-0.07c-0.27-0.05-0.5-0.1-0.68-0.15c-0.23,0.25-0.45,0.51-0.65,0.8c-0.21,0.29-0.31,0.56-0.31,0.83    c0,0.23,0.09,0.41,0.28,0.53c0.19,0.12,0.49,0.21,0.9,0.26l2.27,0.35c1.15,0.16,2.04,0.51,2.65,1.04    c0.62,0.53,0.92,1.28,0.92,2.27c0,0.74-0.2,1.36-0.6,1.85c-0.4,0.49-0.95,0.86-1.65,1.1S572.37,156.93,571.43,156.93z     M571.5,155.47c0.95,0,1.73-0.14,2.32-0.43c0.59-0.29,0.89-0.75,0.89-1.39c0-0.33-0.07-0.62-0.21-0.86    c-0.14-0.25-0.4-0.46-0.79-0.63c-0.39-0.17-0.95-0.32-1.69-0.43l-1.83-0.25c-0.25,0.16-0.51,0.37-0.79,0.6    c-0.28,0.24-0.52,0.51-0.73,0.8c-0.21,0.3-0.31,0.63-0.31,1.01c0,0.54,0.26,0.94,0.78,1.2    C569.67,155.34,570.45,155.47,571.5,155.47z M571.53,146.46c0.53,0,0.94-0.11,1.25-0.33c0.3-0.22,0.53-0.51,0.69-0.88    c0.16-0.36,0.26-0.77,0.32-1.21c0.06-0.44,0.09-0.88,0.09-1.31s-0.03-0.86-0.1-1.28s-0.18-0.83-0.35-1.2    c-0.16-0.37-0.4-0.67-0.7-0.89c-0.3-0.22-0.7-0.33-1.2-0.33c-0.49,0-0.9,0.12-1.22,0.35c-0.32,0.23-0.57,0.53-0.74,0.9    c-0.17,0.37-0.29,0.77-0.35,1.2c-0.06,0.43-0.09,0.85-0.09,1.26c0,0.4,0.02,0.81,0.07,1.26c0.05,0.44,0.16,0.85,0.33,1.22    s0.42,0.67,0.74,0.9C570.6,146.35,571.02,146.46,571.53,146.46z"/>		<path class="st15" d="M581.94,152.46c-0.58,0-1.08-0.14-1.5-0.43c-0.43-0.29-0.76-0.67-1-1.16c-0.24-0.48-0.36-1.02-0.36-1.59    c0-0.72,0.1-1.34,0.31-1.85c0.21-0.51,0.53-0.97,0.99-1.37c0.45-0.4,1.04-0.8,1.78-1.18c0.73-0.39,1.62-0.82,2.68-1.3v-1.01    c0-0.87-0.05-1.56-0.16-2.06c-0.11-0.5-0.29-0.86-0.54-1.07s-0.61-0.32-1.07-0.32c-0.38,0-0.72,0.07-1.01,0.22    c-0.3,0.15-0.54,0.4-0.72,0.75c-0.18,0.35-0.27,0.84-0.27,1.47v0.49l-1.78-0.03c0.02-1.45,0.33-2.52,0.93-3.22    c0.6-0.7,1.58-1.05,2.95-1.05c1.28,0,2.18,0.38,2.7,1.15c0.52,0.77,0.78,1.95,0.78,3.57v6.94c0,0.25,0.01,0.56,0.02,0.95    c0.02,0.39,0.03,0.75,0.05,1.1s0.03,0.61,0.05,0.79h-1.6c-0.03-0.31-0.08-0.66-0.15-1.05s-0.11-0.7-0.12-0.93    c-0.2,0.58-0.55,1.09-1.05,1.53S582.7,152.46,581.94,152.46z M582.51,150.93c0.36,0,0.69-0.09,0.99-0.27    c0.3-0.18,0.56-0.4,0.79-0.65s0.41-0.51,0.54-0.78v-4.44c-0.71,0.36-1.31,0.69-1.81,0.99c-0.5,0.3-0.91,0.58-1.22,0.86    c-0.31,0.28-0.54,0.6-0.69,0.95c-0.15,0.35-0.22,0.77-0.22,1.25c0,0.76,0.16,1.3,0.49,1.62    C581.7,150.77,582.08,150.93,582.51,150.93z"/>		<path class="st15" d="M590.31,152.24v-14.26h1.8v1.48c0.46-0.49,0.98-0.9,1.55-1.22c0.58-0.32,1.2-0.48,1.88-0.48    c0.48,0,0.88,0.12,1.21,0.36s0.58,0.58,0.74,1.04c0.17,0.45,0.25,1,0.25,1.64v11.45h-1.8v-11.06c0-0.74-0.11-1.26-0.33-1.57    c-0.22-0.3-0.56-0.46-1.02-0.46c-0.41,0-0.83,0.12-1.26,0.37c-0.43,0.25-0.83,0.57-1.21,0.96v11.75H590.31z"/>		<path class="st15" d="M601.64,136v-2.44h1.8V136H601.64z M601.64,152.24v-14.26h1.8v14.26H601.64z"/>		<path class="st15" d="M610.77,152.46c-1.13,0-2.04-0.37-2.71-1.1s-1.06-1.72-1.16-2.95l1.51-0.47c0.1,1.1,0.35,1.9,0.76,2.41    s0.99,0.75,1.73,0.75c0.62,0,1.11-0.18,1.44-0.53c0.34-0.35,0.51-0.85,0.51-1.49c0-0.46-0.14-0.93-0.42-1.39    c-0.28-0.47-0.71-0.96-1.31-1.47l-1.95-1.68c-0.64-0.54-1.13-1.09-1.46-1.63s-0.49-1.19-0.49-1.95c0-0.69,0.14-1.27,0.43-1.74    s0.69-0.83,1.2-1.09s1.1-0.38,1.78-0.38c1.09,0,1.91,0.35,2.47,1.05c0.56,0.7,0.86,1.6,0.91,2.7l-1.28,0.42    c-0.03-0.64-0.13-1.17-0.3-1.59c-0.16-0.42-0.39-0.73-0.68-0.93c-0.29-0.2-0.64-0.3-1.05-0.3c-0.54,0-0.98,0.15-1.32,0.46    s-0.51,0.73-0.51,1.27c0,0.43,0.08,0.81,0.25,1.14c0.16,0.33,0.47,0.7,0.91,1.11l2.02,1.8c0.4,0.35,0.77,0.72,1.14,1.11    c0.36,0.39,0.66,0.83,0.89,1.32c0.23,0.49,0.35,1.06,0.35,1.72c0,0.74-0.15,1.36-0.46,1.86s-0.73,0.89-1.27,1.16    S611.51,152.46,610.77,152.46z"/>		<path class="st15" d="M617.51,152.24v-14.26h1.68v1.46c0.48-0.56,1-0.98,1.58-1.27c0.58-0.29,1.17-0.43,1.78-0.43    c0.49,0,0.95,0.13,1.37,0.39c0.42,0.26,0.72,0.75,0.9,1.46c0.49-0.61,1.04-1.07,1.63-1.38c0.59-0.31,1.22-0.47,1.88-0.47    c0.41,0,0.8,0.1,1.17,0.3s0.67,0.54,0.9,1.01c0.23,0.48,0.35,1.13,0.35,1.95v11.25h-1.68v-11.21c0-0.84-0.14-1.39-0.41-1.67    s-0.61-0.41-1.02-0.41c-0.46,0-0.92,0.13-1.38,0.4c-0.46,0.26-0.9,0.62-1.31,1.09c0.02,0.08,0.03,0.17,0.04,0.26    c0.01,0.09,0.01,0.19,0.01,0.28v11.25h-1.7v-11.21c0-0.84-0.14-1.39-0.41-1.67s-0.61-0.41-1.02-0.41c-0.44,0-0.9,0.13-1.36,0.4    c-0.46,0.26-0.9,0.62-1.31,1.06v11.82H617.51z"/>		<path class="st15" d="M637.97,152.46c-0.97,0-1.73-0.21-2.28-0.63c-0.55-0.42-0.94-1.03-1.17-1.83s-0.35-1.77-0.35-2.92v-3.95    c0-1.15,0.12-2.13,0.35-2.92s0.62-1.41,1.17-1.83c0.55-0.42,1.31-0.63,2.28-0.63c1,0,1.78,0.21,2.32,0.63    c0.54,0.42,0.93,1.03,1.16,1.83c0.23,0.8,0.34,1.77,0.34,2.92v3.95c0,1.15-0.12,2.13-0.34,2.92c-0.23,0.8-0.62,1.41-1.16,1.83    S638.97,152.46,637.97,152.46z M637.97,151.1c0.62,0,1.08-0.16,1.37-0.49c0.29-0.33,0.46-0.79,0.53-1.39s0.1-1.28,0.1-2.04v-4.15    c0-0.77-0.03-1.45-0.1-2.04c-0.07-0.58-0.24-1.04-0.53-1.38c-0.29-0.34-0.75-0.51-1.37-0.51s-1.08,0.17-1.36,0.51    c-0.28,0.34-0.45,0.8-0.52,1.38c-0.07,0.58-0.1,1.26-0.1,2.04v4.15c0,0.76,0.03,1.44,0.1,2.04c0.07,0.6,0.24,1.07,0.52,1.39    C636.89,150.94,637.34,151.1,637.97,151.1z"/>		<path class="st15" d="M648.58,152.46c-1.13,0-2.04-0.37-2.71-1.1s-1.06-1.72-1.16-2.95l1.51-0.47c0.1,1.1,0.35,1.9,0.76,2.41    s0.99,0.75,1.73,0.75c0.62,0,1.11-0.18,1.44-0.53c0.34-0.35,0.51-0.85,0.51-1.49c0-0.46-0.14-0.93-0.42-1.39    c-0.28-0.47-0.71-0.96-1.31-1.47l-1.95-1.68c-0.64-0.54-1.13-1.09-1.46-1.63s-0.49-1.19-0.49-1.95c0-0.69,0.14-1.27,0.43-1.74    s0.69-0.83,1.2-1.09s1.1-0.38,1.78-0.38c1.09,0,1.91,0.35,2.47,1.05c0.56,0.7,0.86,1.6,0.91,2.7l-1.28,0.42    c-0.03-0.64-0.13-1.17-0.3-1.59c-0.16-0.42-0.39-0.73-0.68-0.93c-0.29-0.2-0.64-0.3-1.05-0.3c-0.54,0-0.98,0.15-1.32,0.46    s-0.51,0.73-0.51,1.27c0,0.43,0.08,0.81,0.25,1.14c0.16,0.33,0.47,0.7,0.91,1.11l2.02,1.8c0.4,0.35,0.77,0.72,1.14,1.11    c0.36,0.39,0.66,0.83,0.89,1.32c0.23,0.49,0.35,1.06,0.35,1.72c0,0.74-0.15,1.36-0.46,1.86s-0.73,0.89-1.27,1.16    S649.32,152.46,648.58,152.46z"/>	</g>	<g class="st16">		<path class="st15" d="M289.93,181.85v-19.99h7.23v1.46h-5.33v7.5h4.34v1.38h-4.34v8.24h5.38v1.41H289.93z"/>		<path class="st15" d="M303.4,182.07c-1.14,0-2.04-0.37-2.71-1.1s-1.06-1.72-1.16-2.95l1.51-0.47c0.1,1.1,0.35,1.9,0.77,2.41    c0.41,0.5,0.99,0.75,1.73,0.75c0.62,0,1.11-0.18,1.44-0.53c0.34-0.35,0.51-0.85,0.51-1.49c0-0.46-0.14-0.93-0.42-1.39    c-0.28-0.47-0.72-0.96-1.31-1.47l-1.95-1.68c-0.64-0.54-1.13-1.09-1.46-1.63c-0.33-0.54-0.49-1.19-0.49-1.95    c0-0.69,0.14-1.27,0.43-1.74c0.29-0.47,0.69-0.83,1.2-1.09c0.51-0.25,1.1-0.38,1.78-0.38c1.09,0,1.91,0.35,2.47,1.05    c0.56,0.7,0.86,1.6,0.91,2.7l-1.28,0.42c-0.03-0.64-0.13-1.17-0.3-1.59c-0.16-0.42-0.39-0.73-0.68-0.93    c-0.29-0.2-0.64-0.3-1.05-0.3c-0.54,0-0.98,0.15-1.32,0.46c-0.34,0.3-0.51,0.73-0.51,1.27c0,0.43,0.08,0.81,0.25,1.14    c0.16,0.33,0.47,0.7,0.91,1.11l2.02,1.8c0.39,0.35,0.77,0.72,1.14,1.11c0.36,0.39,0.66,0.83,0.89,1.32s0.35,1.06,0.35,1.72    c0,0.74-0.15,1.36-0.46,1.86c-0.3,0.5-0.73,0.89-1.27,1.16S304.14,182.07,303.4,182.07z"/>		<path class="st15" d="M313.52,182.03c-0.69,0-1.22-0.14-1.59-0.41s-0.63-0.64-0.77-1.11c-0.14-0.47-0.21-1.01-0.21-1.62v-10.12    h-1.75v-1.18h1.75v-4.42h1.8v4.42h2.37v1.18h-2.37v9.95c0,0.69,0.08,1.18,0.23,1.47c0.16,0.29,0.5,0.43,1.02,0.43    c0.15,0,0.32-0.01,0.51-0.04c0.19-0.02,0.37-0.05,0.53-0.09v1.38c-0.25,0.05-0.5,0.09-0.77,0.11S313.77,182.03,313.52,182.03z"/>		<path class="st15" d="M320.56,182.07c-0.58,0-1.08-0.14-1.51-0.43c-0.43-0.29-0.76-0.67-1-1.16c-0.24-0.48-0.36-1.02-0.36-1.59    c0-0.72,0.1-1.34,0.31-1.85c0.21-0.51,0.53-0.97,0.99-1.37c0.45-0.4,1.04-0.8,1.78-1.18c0.73-0.39,1.62-0.82,2.68-1.3v-1.01    c0-0.87-0.05-1.56-0.16-2.06s-0.29-0.86-0.54-1.07c-0.26-0.21-0.61-0.32-1.07-0.32c-0.38,0-0.72,0.07-1.01,0.22    c-0.3,0.15-0.53,0.4-0.72,0.75c-0.18,0.35-0.27,0.84-0.27,1.47v0.49l-1.78-0.03c0.02-1.45,0.32-2.52,0.93-3.22    c0.6-0.7,1.58-1.05,2.95-1.05c1.28,0,2.18,0.38,2.7,1.15c0.52,0.77,0.78,1.95,0.78,3.57v6.94c0,0.25,0.01,0.56,0.02,0.95    c0.02,0.39,0.03,0.75,0.05,1.1c0.02,0.35,0.03,0.61,0.05,0.79h-1.6c-0.03-0.31-0.08-0.66-0.15-1.05c-0.07-0.39-0.11-0.7-0.12-0.93    c-0.2,0.58-0.55,1.09-1.05,1.53C321.94,181.85,321.31,182.07,320.56,182.07z M321.12,180.54c0.36,0,0.69-0.09,0.99-0.27    c0.3-0.18,0.56-0.4,0.79-0.65c0.23-0.25,0.41-0.51,0.54-0.78v-4.44c-0.71,0.36-1.31,0.69-1.81,0.99c-0.5,0.3-0.91,0.58-1.22,0.86    c-0.31,0.28-0.54,0.6-0.69,0.95c-0.15,0.35-0.22,0.77-0.22,1.25c0,0.76,0.16,1.3,0.49,1.62    C320.32,180.38,320.69,180.54,321.12,180.54z"/>		<path class="st15" d="M332.2,182.03c-0.69,0-1.22-0.14-1.59-0.41s-0.63-0.64-0.77-1.11c-0.14-0.47-0.21-1.01-0.21-1.62v-10.12    h-1.75v-1.18h1.75v-4.42h1.8v4.42h2.37v1.18h-2.37v9.95c0,0.69,0.08,1.18,0.23,1.47c0.16,0.29,0.5,0.43,1.02,0.43    c0.15,0,0.32-0.01,0.51-0.04c0.19-0.02,0.37-0.05,0.53-0.09v1.38c-0.25,0.05-0.5,0.09-0.77,0.11S332.45,182.03,332.2,182.03z"/>		<path class="st15" d="M339.24,182.07c-0.58,0-1.08-0.14-1.5-0.43c-0.43-0.29-0.76-0.67-1-1.16c-0.24-0.48-0.36-1.02-0.36-1.59    c0-0.72,0.1-1.34,0.31-1.85c0.21-0.51,0.53-0.97,0.99-1.37c0.45-0.4,1.04-0.8,1.78-1.18c0.73-0.39,1.62-0.82,2.68-1.3v-1.01    c0-0.87-0.05-1.56-0.16-2.06c-0.11-0.5-0.29-0.86-0.54-1.07s-0.61-0.32-1.07-0.32c-0.38,0-0.72,0.07-1.01,0.22    c-0.3,0.15-0.54,0.4-0.72,0.75c-0.18,0.35-0.27,0.84-0.27,1.47v0.49l-1.78-0.03c0.02-1.45,0.33-2.52,0.93-3.22    c0.6-0.7,1.58-1.05,2.95-1.05c1.28,0,2.18,0.38,2.7,1.15c0.52,0.77,0.78,1.95,0.78,3.57v6.94c0,0.25,0.01,0.56,0.02,0.95    c0.02,0.39,0.03,0.75,0.05,1.1s0.03,0.61,0.05,0.79h-1.6c-0.03-0.31-0.08-0.66-0.15-1.05s-0.11-0.7-0.12-0.93    c-0.2,0.58-0.55,1.09-1.05,1.53S339.99,182.07,339.24,182.07z M339.81,180.54c0.36,0,0.69-0.09,0.99-0.27    c0.3-0.18,0.56-0.4,0.79-0.65s0.41-0.51,0.54-0.78v-4.44c-0.71,0.36-1.31,0.69-1.81,0.99c-0.5,0.3-0.91,0.58-1.22,0.86    c-0.31,0.28-0.54,0.6-0.69,0.95c-0.15,0.35-0.22,0.77-0.22,1.25c0,0.76,0.16,1.3,0.49,1.62    C339,180.38,339.38,180.54,339.81,180.54z"/>		<path class="st15" d="M347.85,181.85v-19.99h1.8v19.99H347.85z"/>		<path class="st15" d="M357.2,182.07c-0.89,0-1.62-0.18-2.18-0.53s-0.99-0.94-1.26-1.76c-0.27-0.82-0.41-1.92-0.41-3.28v-3.6    c0-1.42,0.14-2.52,0.42-3.32c0.28-0.8,0.71-1.37,1.28-1.7c0.58-0.34,1.3-0.51,2.17-0.51c1,0,1.77,0.21,2.29,0.64    c0.53,0.43,0.89,1.07,1.1,1.94c0.21,0.86,0.31,1.97,0.31,3.32v1.28h-5.78v2.49c0,0.92,0.07,1.65,0.21,2.18    c0.14,0.54,0.36,0.92,0.67,1.15s0.7,0.34,1.17,0.34c0.36,0,0.69-0.07,0.99-0.21c0.3-0.14,0.53-0.41,0.7-0.81s0.26-0.98,0.26-1.72    v-0.99h1.75v0.79c0,1.3-0.27,2.34-0.8,3.12C359.57,181.68,358.6,182.07,357.2,182.07z M355.16,173.51h4v-1.18    c0-0.76-0.04-1.4-0.12-1.94c-0.08-0.53-0.26-0.95-0.53-1.23c-0.27-0.29-0.7-0.43-1.3-0.43c-0.49,0-0.89,0.11-1.2,0.32    s-0.52,0.6-0.65,1.15c-0.13,0.55-0.2,1.34-0.2,2.36V173.51z"/>		<path class="st15" d="M367.67,182.07c-1.13,0-2.04-0.37-2.71-1.1s-1.06-1.72-1.16-2.95l1.51-0.47c0.1,1.1,0.35,1.9,0.76,2.41    s0.99,0.75,1.73,0.75c0.62,0,1.11-0.18,1.44-0.53c0.34-0.35,0.51-0.85,0.51-1.49c0-0.46-0.14-0.93-0.42-1.39    c-0.28-0.47-0.71-0.96-1.31-1.47l-1.95-1.68c-0.64-0.54-1.13-1.09-1.46-1.63s-0.49-1.19-0.49-1.95c0-0.69,0.14-1.27,0.43-1.74    s0.69-0.83,1.2-1.09s1.1-0.38,1.78-0.38c1.09,0,1.91,0.35,2.47,1.05c0.56,0.7,0.86,1.6,0.91,2.7l-1.28,0.42    c-0.03-0.64-0.13-1.17-0.3-1.59c-0.16-0.42-0.39-0.73-0.68-0.93c-0.29-0.2-0.64-0.3-1.05-0.3c-0.54,0-0.98,0.15-1.32,0.46    s-0.51,0.73-0.51,1.27c0,0.43,0.08,0.81,0.25,1.14c0.16,0.33,0.47,0.7,0.91,1.11l2.02,1.8c0.4,0.35,0.77,0.72,1.14,1.11    c0.36,0.39,0.66,0.83,0.89,1.32c0.23,0.49,0.35,1.06,0.35,1.72c0,0.74-0.15,1.36-0.46,1.86s-0.73,0.89-1.27,1.16    S368.41,182.07,367.67,182.07z"/>		<path class="st15" d="M383.64,182.07c-1.22,0-2.09-0.46-2.63-1.38c-0.54-0.92-0.8-2.45-0.8-4.59v-2.64c0-1.25,0.09-2.33,0.27-3.23    s0.51-1.61,1-2.11s1.18-0.75,2.08-0.75c0.56,0,1.05,0.13,1.47,0.38s0.77,0.54,1.05,0.85v-6.74h1.8v19.99h-1.8v-1.01    c-0.28,0.31-0.62,0.6-1.02,0.85S384.18,182.07,383.64,182.07z M384.01,180.64c0.4,0,0.77-0.09,1.12-0.27    c0.35-0.18,0.67-0.4,0.95-0.67v-9.92c-0.25-0.23-0.55-0.46-0.91-0.68c-0.36-0.22-0.76-0.33-1.21-0.33c-0.79,0-1.31,0.35-1.57,1.05    c-0.26,0.7-0.38,1.71-0.38,3.05v3.38c0,0.96,0.05,1.76,0.16,2.42c0.11,0.66,0.3,1.15,0.59,1.48S383.46,180.64,384.01,180.64z"/>		<path class="st15" d="M395.29,182.07c-0.89,0-1.62-0.18-2.18-0.53s-0.99-0.94-1.26-1.76c-0.27-0.82-0.41-1.92-0.41-3.28v-3.6    c0-1.42,0.14-2.52,0.42-3.32c0.28-0.8,0.71-1.37,1.28-1.7c0.58-0.34,1.3-0.51,2.17-0.51c1,0,1.77,0.21,2.29,0.64    c0.53,0.43,0.89,1.07,1.1,1.94c0.21,0.86,0.31,1.97,0.31,3.32v1.28h-5.78v2.49c0,0.92,0.07,1.65,0.21,2.18    c0.14,0.54,0.36,0.92,0.67,1.15s0.7,0.34,1.17,0.34c0.36,0,0.69-0.07,0.99-0.21c0.3-0.14,0.53-0.41,0.7-0.81s0.26-0.98,0.26-1.72    v-0.99h1.75v0.79c0,1.3-0.27,2.34-0.8,3.12C397.65,181.68,396.68,182.07,395.29,182.07z M393.24,173.51h4v-1.18    c0-0.76-0.04-1.4-0.12-1.94c-0.08-0.53-0.26-0.95-0.53-1.23c-0.27-0.29-0.7-0.43-1.3-0.43c-0.49,0-0.89,0.11-1.2,0.32    s-0.52,0.6-0.65,1.15c-0.13,0.55-0.2,1.34-0.2,2.36V173.51z"/>		<path class="st15" d="M413.57,182.1c-1.35,0-2.39-0.28-3.12-0.84c-0.73-0.56-1.24-1.31-1.52-2.26c-0.28-0.95-0.42-2-0.42-3.15    v-7.95c0-1.23,0.14-2.32,0.43-3.26c0.29-0.94,0.8-1.67,1.54-2.2c0.74-0.53,1.77-0.79,3.09-0.79c1.2,0,2.14,0.23,2.83,0.69    s1.17,1.11,1.47,1.96s0.44,1.86,0.44,3.02v1.21h-1.78v-1.16c0-0.87-0.07-1.62-0.21-2.25s-0.42-1.11-0.85-1.46    c-0.43-0.35-1.05-0.52-1.88-0.52c-0.91,0-1.58,0.18-2.04,0.55c-0.45,0.37-0.76,0.89-0.91,1.57c-0.16,0.67-0.23,1.46-0.23,2.34    v8.51c0,0.99,0.09,1.81,0.28,2.47c0.19,0.66,0.51,1.15,0.98,1.48c0.46,0.33,1.1,0.49,1.92,0.49c0.84,0,1.47-0.18,1.89-0.54    c0.42-0.36,0.7-0.87,0.84-1.52s0.21-1.41,0.21-2.28v-1.31h1.78v1.18c0,1.17-0.14,2.2-0.41,3.1c-0.27,0.9-0.75,1.6-1.43,2.11    C415.79,181.84,414.82,182.1,413.57,182.1z"/>		<path class="st15" d="M422.11,165.61v-2.44h1.8v2.44H422.11z M422.11,181.85v-14.26h1.8v14.26H422.11z"/>		<path class="st15" d="M431.56,182.07c-0.89,0-1.62-0.18-2.18-0.53s-0.99-0.94-1.26-1.76c-0.27-0.82-0.41-1.92-0.41-3.28v-3.6    c0-1.42,0.14-2.52,0.42-3.32c0.28-0.8,0.71-1.37,1.28-1.7c0.58-0.34,1.3-0.51,2.17-0.51c1,0,1.77,0.21,2.29,0.64    c0.53,0.43,0.89,1.07,1.1,1.94c0.21,0.86,0.31,1.97,0.31,3.32v1.28h-5.78v2.49c0,0.92,0.07,1.65,0.21,2.18    c0.14,0.54,0.36,0.92,0.67,1.15s0.7,0.34,1.17,0.34c0.36,0,0.69-0.07,0.99-0.21c0.3-0.14,0.53-0.41,0.7-0.81s0.26-0.98,0.26-1.72    v-0.99h1.75v0.79c0,1.3-0.27,2.34-0.8,3.12C433.93,181.68,432.96,182.07,431.56,182.07z M429.51,173.51h4v-1.18    c0-0.76-0.04-1.4-0.12-1.94c-0.08-0.53-0.26-0.95-0.53-1.23c-0.27-0.29-0.7-0.43-1.3-0.43c-0.49,0-0.89,0.11-1.2,0.32    s-0.52,0.6-0.65,1.15c-0.13,0.55-0.2,1.34-0.2,2.36V173.51z"/>		<path class="st15" d="M438.77,181.85v-14.26h1.8v1.48c0.46-0.49,0.98-0.9,1.55-1.22c0.58-0.32,1.2-0.48,1.88-0.48    c0.48,0,0.88,0.12,1.21,0.36s0.58,0.58,0.74,1.04c0.17,0.45,0.25,1,0.25,1.64v11.45h-1.8V170.8c0-0.74-0.11-1.26-0.33-1.57    c-0.22-0.3-0.56-0.46-1.02-0.46c-0.41,0-0.83,0.12-1.26,0.37c-0.43,0.25-0.83,0.57-1.21,0.96v11.75H438.77z"/>		<path class="st15" d="M453.45,182.07c-1.12,0-1.95-0.25-2.49-0.74c-0.54-0.49-0.9-1.16-1.07-2.01s-0.26-1.81-0.26-2.88v-3.33    c0-1.32,0.11-2.4,0.32-3.25c0.21-0.85,0.6-1.48,1.15-1.89c0.55-0.41,1.34-0.62,2.36-0.62c1,0,1.77,0.19,2.3,0.57    c0.53,0.38,0.88,0.91,1.06,1.6c0.18,0.69,0.27,1.49,0.27,2.39v0.69h-1.68v-0.69c0-0.84-0.06-1.49-0.19-1.95    c-0.12-0.46-0.33-0.79-0.62-0.97c-0.29-0.19-0.67-0.28-1.15-0.28c-0.56,0-0.99,0.13-1.28,0.39c-0.3,0.26-0.49,0.7-0.59,1.3    s-0.15,1.4-0.15,2.41v4c0,1.43,0.14,2.44,0.42,3.02c0.28,0.58,0.82,0.88,1.63,0.88c0.56,0,0.98-0.13,1.26-0.38    c0.28-0.25,0.46-0.64,0.54-1.15c0.08-0.51,0.12-1.14,0.12-1.9v-0.79h1.68v0.69c0,0.95-0.09,1.8-0.26,2.53s-0.52,1.31-1.05,1.73    S454.47,182.07,453.45,182.07z"/>		<path class="st15" d="M460.73,165.61v-2.44h1.8v2.44H460.73z M460.73,181.85v-14.26h1.8v14.26H460.73z"/>		<path class="st15" d="M469.08,182.07c-0.58,0-1.08-0.14-1.5-0.43c-0.43-0.29-0.76-0.67-1-1.16c-0.24-0.48-0.36-1.02-0.36-1.59    c0-0.72,0.1-1.34,0.31-1.85c0.21-0.51,0.53-0.97,0.99-1.37c0.45-0.4,1.04-0.8,1.78-1.18c0.73-0.39,1.62-0.82,2.68-1.3v-1.01    c0-0.87-0.05-1.56-0.16-2.06c-0.11-0.5-0.29-0.86-0.54-1.07s-0.61-0.32-1.07-0.32c-0.38,0-0.72,0.07-1.01,0.22    c-0.3,0.15-0.54,0.4-0.72,0.75c-0.18,0.35-0.27,0.84-0.27,1.47v0.49l-1.78-0.03c0.02-1.45,0.33-2.52,0.93-3.22    c0.6-0.7,1.58-1.05,2.95-1.05c1.28,0,2.18,0.38,2.7,1.15c0.52,0.77,0.78,1.95,0.78,3.57v6.94c0,0.25,0.01,0.56,0.02,0.95    c0.02,0.39,0.03,0.75,0.05,1.1s0.03,0.61,0.05,0.79h-1.6c-0.03-0.31-0.08-0.66-0.15-1.05s-0.11-0.7-0.12-0.93    c-0.2,0.58-0.55,1.09-1.05,1.53S469.83,182.07,469.08,182.07z M469.64,180.54c0.36,0,0.69-0.09,0.99-0.27    c0.3-0.18,0.56-0.4,0.79-0.65s0.41-0.51,0.54-0.78v-4.44c-0.71,0.36-1.31,0.69-1.81,0.99c-0.5,0.3-0.91,0.58-1.22,0.86    c-0.31,0.28-0.54,0.6-0.69,0.95c-0.15,0.35-0.22,0.77-0.22,1.25c0,0.76,0.16,1.3,0.49,1.62    C468.84,180.38,469.22,180.54,469.64,180.54z"/>		<path class="st15" d="M483.12,185.41V184c0.82,0,1.44-0.06,1.86-0.19c0.42-0.12,0.7-0.3,0.84-0.52c0.14-0.22,0.21-0.48,0.21-0.78    c0-0.26-0.05-0.61-0.15-1.04s-0.21-0.87-0.32-1.33l-2.94-12.56h1.8l2.47,12.14l2.39-12.14h1.83l-3.46,15.28    c-0.13,0.61-0.37,1.1-0.7,1.47c-0.34,0.37-0.78,0.64-1.33,0.81c-0.55,0.17-1.23,0.26-2.04,0.26H483.12z"/>		<path class="st15" d="M502.86,181.85v-18.54h-3.78v-1.46h9.33v1.46h-3.68v18.54H502.86z"/>		<path class="st15" d="M514.59,182.07c-0.89,0-1.62-0.18-2.18-0.53s-0.99-0.94-1.26-1.76c-0.27-0.82-0.41-1.92-0.41-3.28v-3.6    c0-1.42,0.14-2.52,0.42-3.32c0.28-0.8,0.71-1.37,1.28-1.7c0.58-0.34,1.3-0.51,2.17-0.51c1,0,1.77,0.21,2.29,0.64    c0.53,0.43,0.89,1.07,1.1,1.94c0.21,0.86,0.31,1.97,0.31,3.32v1.28h-5.78v2.49c0,0.92,0.07,1.65,0.21,2.18    c0.14,0.54,0.36,0.92,0.67,1.15s0.7,0.34,1.17,0.34c0.36,0,0.69-0.07,0.99-0.21c0.3-0.14,0.53-0.41,0.7-0.81s0.26-0.98,0.26-1.72    v-0.99h1.75v0.79c0,1.3-0.27,2.34-0.8,3.12C516.95,181.68,515.98,182.07,514.59,182.07z M512.54,173.51h4v-1.18    c0-0.76-0.04-1.4-0.12-1.94c-0.08-0.53-0.26-0.95-0.53-1.23c-0.27-0.29-0.7-0.43-1.3-0.43c-0.49,0-0.89,0.11-1.2,0.32    s-0.52,0.6-0.65,1.15c-0.13,0.55-0.2,1.34-0.2,2.36V173.51z"/>		<path class="st15" d="M525.35,182.07c-1.12,0-1.95-0.25-2.49-0.74c-0.54-0.49-0.9-1.16-1.07-2.01s-0.26-1.81-0.26-2.88v-3.33    c0-1.32,0.11-2.4,0.32-3.25c0.21-0.85,0.6-1.48,1.15-1.89c0.55-0.41,1.34-0.62,2.36-0.62c1,0,1.77,0.19,2.3,0.57    c0.53,0.38,0.88,0.91,1.06,1.6c0.18,0.69,0.27,1.49,0.27,2.39v0.69h-1.68v-0.69c0-0.84-0.06-1.49-0.19-1.95    c-0.12-0.46-0.33-0.79-0.62-0.97c-0.29-0.19-0.67-0.28-1.15-0.28c-0.56,0-0.99,0.13-1.28,0.39c-0.3,0.26-0.49,0.7-0.59,1.3    s-0.15,1.4-0.15,2.41v4c0,1.43,0.14,2.44,0.42,3.02c0.28,0.58,0.82,0.88,1.63,0.88c0.56,0,0.98-0.13,1.26-0.38    c0.28-0.25,0.46-0.64,0.54-1.15c0.08-0.51,0.12-1.14,0.12-1.9v-0.79h1.68v0.69c0,0.95-0.09,1.8-0.26,2.53s-0.52,1.31-1.05,1.73    S526.37,182.07,525.35,182.07z"/>		<path class="st15" d="M532.43,181.85v-14.26h1.8v1.48c0.46-0.49,0.98-0.9,1.55-1.22c0.58-0.32,1.2-0.48,1.88-0.48    c0.48,0,0.88,0.12,1.21,0.36s0.58,0.58,0.74,1.04c0.17,0.45,0.25,1,0.25,1.64v11.45h-1.8V170.8c0-0.74-0.11-1.26-0.33-1.57    c-0.22-0.3-0.56-0.46-1.02-0.46c-0.41,0-0.83,0.12-1.26,0.37c-0.43,0.25-0.83,0.57-1.21,0.96v11.75H532.43z"/>		<path class="st15" d="M547.09,182.07c-0.97,0-1.73-0.21-2.28-0.63c-0.55-0.42-0.94-1.03-1.17-1.83s-0.35-1.77-0.35-2.92v-3.95    c0-1.15,0.12-2.13,0.35-2.92s0.62-1.41,1.17-1.83c0.55-0.42,1.31-0.63,2.28-0.63c1,0,1.78,0.21,2.32,0.63    c0.54,0.42,0.93,1.03,1.16,1.83c0.23,0.8,0.34,1.77,0.34,2.92v3.95c0,1.15-0.12,2.13-0.34,2.92c-0.23,0.8-0.62,1.41-1.16,1.83    S548.09,182.07,547.09,182.07z M547.09,180.72c0.62,0,1.08-0.16,1.37-0.49c0.29-0.33,0.46-0.79,0.53-1.39s0.1-1.28,0.1-2.04v-4.15    c0-0.77-0.03-1.45-0.1-2.04c-0.07-0.58-0.24-1.04-0.53-1.38c-0.29-0.34-0.75-0.51-1.37-0.51s-1.08,0.17-1.36,0.51    c-0.28,0.34-0.45,0.8-0.52,1.38c-0.07,0.58-0.1,1.26-0.1,2.04v4.15c0,0.76,0.03,1.44,0.1,2.04c0.07,0.6,0.24,1.07,0.52,1.39    C546.01,180.55,546.46,180.72,547.09,180.72z"/>		<path class="st15" d="M554.69,181.85v-19.99h1.8v19.99H554.69z"/>		<path class="st15" d="M563.99,182.07c-0.97,0-1.73-0.21-2.28-0.63c-0.55-0.42-0.94-1.03-1.17-1.83s-0.35-1.77-0.35-2.92v-3.95    c0-1.15,0.12-2.13,0.35-2.92s0.62-1.41,1.17-1.83c0.55-0.42,1.31-0.63,2.28-0.63c1,0,1.78,0.21,2.32,0.63    c0.54,0.42,0.93,1.03,1.16,1.83c0.23,0.8,0.34,1.77,0.34,2.92v3.95c0,1.15-0.12,2.13-0.34,2.92c-0.23,0.8-0.62,1.41-1.16,1.83    S565,182.07,563.99,182.07z M563.99,180.72c0.62,0,1.08-0.16,1.37-0.49c0.29-0.33,0.46-0.79,0.53-1.39s0.1-1.28,0.1-2.04v-4.15    c0-0.77-0.03-1.45-0.1-2.04c-0.07-0.58-0.24-1.04-0.53-1.38c-0.29-0.34-0.75-0.51-1.37-0.51s-1.08,0.17-1.36,0.51    c-0.28,0.34-0.45,0.8-0.52,1.38c-0.07,0.58-0.1,1.26-0.1,2.04v4.15c0,0.76,0.03,1.44,0.1,2.04c0.07,0.6,0.24,1.07,0.52,1.39    C562.92,180.55,563.37,180.72,563.99,180.72z"/>		<path class="st15" d="M574.98,186.54c-0.94,0-1.75-0.09-2.44-0.27c-0.69-0.18-1.22-0.46-1.59-0.85s-0.55-0.88-0.55-1.47    c0-0.48,0.11-0.91,0.34-1.31c0.23-0.4,0.53-0.75,0.89-1.05c0.36-0.3,0.73-0.56,1.11-0.75c-0.54-0.15-0.94-0.35-1.2-0.62    c-0.26-0.26-0.38-0.58-0.38-0.94c0-0.49,0.15-0.94,0.46-1.33c0.3-0.39,0.72-0.81,1.25-1.26c-0.66-0.46-1.12-1.05-1.39-1.78    c-0.27-0.72-0.41-1.58-0.41-2.57c0-0.92,0.14-1.76,0.43-2.5c0.29-0.75,0.72-1.35,1.31-1.8c0.58-0.45,1.34-0.68,2.26-0.68    c0.84,0,1.5,0.17,1.97,0.52c0.48,0.35,0.84,0.76,1.09,1.26c0.15-0.23,0.4-0.51,0.76-0.85c0.36-0.34,0.75-0.59,1.16-0.75l0.37-0.12    l0.49,1.26c-0.26,0.05-0.55,0.14-0.86,0.28c-0.31,0.14-0.6,0.29-0.88,0.46s-0.47,0.33-0.6,0.49c0.11,0.3,0.22,0.7,0.31,1.21    c0.09,0.51,0.14,0.94,0.14,1.28c0,0.94-0.13,1.79-0.38,2.54s-0.67,1.35-1.23,1.79c-0.57,0.44-1.34,0.65-2.31,0.65    c-0.25,0-0.51-0.03-0.78-0.07c-0.27-0.05-0.5-0.1-0.68-0.15c-0.23,0.25-0.45,0.51-0.65,0.8c-0.21,0.29-0.31,0.56-0.31,0.83    c0,0.23,0.09,0.41,0.28,0.53c0.19,0.12,0.49,0.21,0.9,0.26l2.27,0.35c1.15,0.16,2.04,0.51,2.65,1.04    c0.62,0.53,0.92,1.28,0.92,2.27c0,0.74-0.2,1.36-0.6,1.85c-0.4,0.49-0.95,0.86-1.65,1.1S575.91,186.54,574.98,186.54z     M575.05,185.09c0.95,0,1.73-0.14,2.32-0.43c0.59-0.29,0.89-0.75,0.89-1.39c0-0.33-0.07-0.62-0.21-0.86    c-0.14-0.25-0.4-0.46-0.79-0.63c-0.39-0.17-0.95-0.32-1.69-0.43l-1.83-0.25c-0.25,0.16-0.51,0.37-0.79,0.6    c-0.28,0.24-0.52,0.51-0.73,0.8c-0.21,0.3-0.31,0.63-0.31,1.01c0,0.54,0.26,0.94,0.78,1.2C573.21,184.96,574,185.09,575.05,185.09    z M575.07,176.08c0.53,0,0.94-0.11,1.25-0.33c0.3-0.22,0.53-0.51,0.69-0.88c0.16-0.36,0.26-0.77,0.32-1.21    c0.06-0.44,0.09-0.88,0.09-1.31s-0.03-0.86-0.1-1.28s-0.18-0.83-0.35-1.2c-0.16-0.37-0.4-0.67-0.7-0.89    c-0.3-0.22-0.7-0.33-1.2-0.33c-0.49,0-0.9,0.12-1.22,0.35c-0.32,0.23-0.57,0.53-0.74,0.9c-0.17,0.37-0.29,0.77-0.35,1.2    c-0.06,0.43-0.09,0.85-0.09,1.26c0,0.4,0.02,0.81,0.07,1.26c0.05,0.44,0.16,0.85,0.33,1.22s0.42,0.67,0.74,0.9    C574.15,175.96,574.56,176.08,575.07,176.08z"/>		<path class="st15" d="M583.22,181.85v-14.26h1.8v14.26H583.22z M583.66,166.4l1.55-4.84h1.8l-2.42,4.84H583.66z"/>		<path class="st15" d="M591.41,182.07c-0.58,0-1.08-0.14-1.5-0.43c-0.43-0.29-0.76-0.67-1-1.16c-0.24-0.48-0.36-1.02-0.36-1.59    c0-0.72,0.1-1.34,0.31-1.85c0.21-0.51,0.53-0.97,0.99-1.37c0.45-0.4,1.04-0.8,1.78-1.18c0.73-0.39,1.62-0.82,2.68-1.3v-1.01    c0-0.87-0.05-1.56-0.16-2.06c-0.11-0.5-0.29-0.86-0.54-1.07s-0.61-0.32-1.07-0.32c-0.38,0-0.72,0.07-1.01,0.22    c-0.3,0.15-0.54,0.4-0.72,0.75c-0.18,0.35-0.27,0.84-0.27,1.47v0.49l-1.78-0.03c0.02-1.45,0.33-2.52,0.93-3.22    c0.6-0.7,1.58-1.05,2.95-1.05c1.28,0,2.18,0.38,2.7,1.15c0.52,0.77,0.78,1.95,0.78,3.57v6.94c0,0.25,0.01,0.56,0.02,0.95    c0.02,0.39,0.03,0.75,0.05,1.1s0.03,0.61,0.05,0.79h-1.6c-0.03-0.31-0.08-0.66-0.15-1.05s-0.11-0.7-0.12-0.93    c-0.2,0.58-0.55,1.09-1.05,1.53S592.17,182.07,591.41,182.07z M591.98,180.54c0.36,0,0.69-0.09,0.99-0.27    c0.3-0.18,0.56-0.4,0.79-0.65s0.41-0.51,0.54-0.78v-4.44c-0.71,0.36-1.31,0.69-1.81,0.99c-0.5,0.3-0.91,0.58-1.22,0.86    c-0.31,0.28-0.54,0.6-0.69,0.95c-0.15,0.35-0.22,0.77-0.22,1.25c0,0.76,0.16,1.3,0.49,1.62    C591.17,180.38,591.55,180.54,591.98,180.54z"/>		<path class="st15" d="M600,184.72l-0.4-0.79c0.44-0.25,0.75-0.53,0.93-0.85s0.26-0.73,0.26-1.22h-1.06v-2.69h2v2.49    c0,0.81-0.13,1.44-0.4,1.9C601.07,184.02,600.63,184.4,600,184.72z"/>		<path class="st15" d="M610.64,181.85l4.22-19.99h1.97l4.25,19.99h-1.85l-0.99-5.36h-4.76l-1.01,5.36H610.64z M613.75,175.14h4.25    l-2.12-10.79L613.75,175.14z"/>		<path class="st15" d="M624.26,181.85v-2.71h1.9v2.71H624.26z"/>		<path class="st15" d="M634.68,182.1c-1.35,0-2.39-0.28-3.12-0.84c-0.73-0.56-1.24-1.31-1.52-2.26c-0.28-0.95-0.42-2-0.42-3.15    v-7.95c0-1.23,0.14-2.32,0.43-3.26c0.29-0.94,0.8-1.67,1.54-2.2c0.74-0.53,1.77-0.79,3.09-0.79c1.2,0,2.14,0.23,2.83,0.69    s1.17,1.11,1.47,1.96s0.44,1.86,0.44,3.02v1.21h-1.78v-1.16c0-0.87-0.07-1.62-0.21-2.25s-0.42-1.11-0.85-1.46    c-0.43-0.35-1.05-0.52-1.88-0.52c-0.91,0-1.58,0.18-2.04,0.55c-0.45,0.37-0.76,0.89-0.91,1.57c-0.16,0.67-0.23,1.46-0.23,2.34    v8.51c0,0.99,0.09,1.81,0.28,2.47c0.19,0.66,0.51,1.15,0.98,1.48c0.46,0.33,1.1,0.49,1.92,0.49c0.84,0,1.47-0.18,1.89-0.54    c0.42-0.36,0.7-0.87,0.84-1.52s0.21-1.41,0.21-2.28v-1.31h1.78v1.18c0,1.17-0.14,2.2-0.41,3.1c-0.27,0.9-0.75,1.6-1.43,2.11    C636.89,181.84,635.93,182.1,634.68,182.1z"/>		<path class="st15" d="M643.12,181.85v-2.71h1.9v2.71H643.12z"/>	</g></g></svg>